
<svg xmlns="http://www.w3.org/2000/svg" version="1.1" xmlns:xlink="http://www.w3.org/1999/xlink" preserveAspectRatio="none" x="0px" y="0px" width="192px" height="270px" viewBox="0 0 192 270">
<defs>
<g id="Layer1_0_FILL">
<path fill="#FFFFFF" stroke="none" d="
M 181.65 48.8
Q 183.9 46.1 184.3 43.3 184.65 40.5 177.25 33.5 169.85 26.45 146.1 12.75 134.2 6.85 122.05 3.7 108.45 0.15 94.9 0 76.65 0 59.55 5.6 43.2 10.95 30.1 20.8 17.15 30.55 9.65 43.35 3.45 54.25 2.25 65.75 2.1 66.65 2.05 67.65 1.95 69.4 1.9 71.2 1.75 86.2 9.25 98.9 16.45 111.05 29.35 119.6 41.4 127.65 58.45 133.7 70.6 138 85.55 141.25 84.89375 141.15625 84.2 141 89.8482421875 142.3083984375 96.05 143.4
L 96.75 143.4
Q 115.65 147.15 130.4 152.35 145.55 157.55 155.8 164.3 166.2 171.65 171.15 180 176.2 188.6 176.1 199.5 175.95 210.2 170.3 220 164.5 229.85 153.7 237.5 143.05 245.35 128.55 249.65 113.65 254.3 97.25 254.3 85.3 254.45 72.85 251.45 61.4 248.75 50.05 243.75 30.4 235 13.55 221.45 7.55 215.9 2.1 222.5 -2.6 228.6 3.25 233.75 20.35 248.95 43.3 258.4 56.1 264.1 68.9 267.15 83.1 270.55 97.05 270.7 115.8 270.7 133.15 265.35 149.85 260.15 163.15 250.55 176.5 240.9 184.3 228.05 192.3 214.3 192.5 199.5 192.65 184.5 185.15 171.8 177.95 159.65 165.05 151.1 153 143.05 135.95 137 131.15 135.3 125.95 133.85 113.65 130 98.35 127.3
L 97.65 127.3
Q 78.75 123.55 64 118.35 48.85 113.15 38.6 106.4 28.2 99.05 23.3 90.7 18.2 82.1 18.3 71.2 18.35 69.4 18.5 67.65 19.3 62.95 20.25 59.05 21.15 55.15 22.95 51.15 28.5 41.5 38.9 33.95 49.3 26.05 63.4 21.7 77.9 16.95 93.7 16.95 105.25 16.8 117.05 19.85 127.8 22.6 138.25 27.65 156.2 36.4 170.75 49.8 175.75 55.2 181.65 48.8 Z"/>
</g>
</defs>

<g transform="matrix( 1, 0, 0, 1, 0,0) ">
<use xlink:href="#Layer1_0_FILL"/>
</g>
</svg>
