
<svg xmlns="http://www.w3.org/2000/svg" version="1.1" xmlns:xlink="http://www.w3.org/1999/xlink" preserveAspectRatio="none" x="0px" y="0px" width="153px" height="136px" viewBox="0 0 153 136">
<defs>
<linearGradient id="Gradient_1" gradientUnits="userSpaceOnUse" x1="94.025" y1="132.0125" x2="63.875" y2="19.387500000000003" spreadMethod="pad">
<stop  offset="22.352941176470587%" stop-color="#F3A539"/>

<stop  offset="100%" stop-color="#F9DB43"/>
</linearGradient>

<linearGradient id="Gradient_2" gradientUnits="userSpaceOnUse" x1="90.55000000000001" y1="146.35000000000002" x2="46.35" y2="-20.450000000000003" spreadMethod="pad">
<stop  offset="22.352941176470587%" stop-color="#F3A539"/>

<stop  offset="100%" stop-color="#F9DB43"/>
</linearGradient>

<g id="Layer0_0_FILL">
<path fill="url(#Gradient_1)" stroke="none" d="
M 89.85 57.25
Q 95.65 60.1 98.15 64.3
L 111.95 57.15
Q 103.15 38.85 75.8 38.85 61.3 39.1 51.6 45.25 40.15 52.5 40.15 65.7 40.15 66 40.2 66.3 40.25 71.4 41.85 75.45 44.45 82.45 51.2 86.6 55.757421875 89.37890625 63 91.2 68.7927734375 92.6560546875 76.3 93.5 97.7 96 97.7 107.05 97.7 107.35 97.65 107.65 97.4 114.2 91.25 117.75 88.3 119.4 84.5 120.15 80.9 120.85 76.55 120.85 72.5 120.85 68.9 120.15 64.65 119.3 60.95 117.4 53.5 113.6 50.6 106.35
L 36.15 113.7
Q 36.3 114.15 36.5 114.65 37.8 117.55 39.45 120.15 44.2 127.4 51.8 131.3 61.3 136.3 76.3 136.3 92.9 136.3 103.25 129.4 108.85 125.6 111.8 120.15 114.7 114.65 114.8 107.6 114.8 107.35 114.8 107.05 114.8 97.502734375 110.1 91.2 107.53515625 87.699609375 103.5 85.2 95.2 79.95 77.7 77.85 70.25 76.9 65.95 75.45 64.55 74.95 63.45 74.5 57.6 71.8 57.3 66.7 57.3 66.45 57.3 66.2 57.3 60.95 62.05 57.65 67.15 54.05 76.3 54.05 83.45 54.05 89.85 57.25 Z"/>

<path fill="url(#Gradient_2)" stroke="none" d="
M 127.75 17.45
Q 127.3 17.1 126.85 16.75 107.1 1.15 80.85 0.1 78.9 0 76.9 0 48.3 0 27.15 16.75 24.95 18.5 22.8 20.45 16.55 26.1 12.05 32.45 2.25 46.15 0.5 62.95
L 0 70.45
Q 0 70.7 0 70.95
L 0 71.6
Q 0 71.8 0 72.05
L 0 72.15
Q 0 72.6 0 73.25 0 74.2 0 75.45 0 75.95 0 76.55 0 78.35 0 80.7
L 0 81.8
Q 0 84.5240234375 0 88 0 89.540625 0 91.2 0 91.6947265625 0 92.2
L 0 93.15
Q 0 93.25 0 93.35 0 93.8 0 94.3 0 99.8 0 106.5
L 18.3 116.95
Q 18.3 115.25 18.3 113.65 18.3 113.1 18.3 112.55
L 18.3 94.3
Q 18.3 93.8 18.3 93.35
L 18.3 93.15
Q 18.3 92.7 18.3 92.2 18.3 91.6947265625 18.3 91.2 18.3 89.540625 18.3 88 18.3 84.5240234375 18.3 81.8
L 18.3 80.7
Q 18.3 78.3 18.3 76.55
L 18.3 75.45
Q 18.3 74.1 18.3 73.25 18.3 72.6 18.3 72.15
L 18.3 70
Q 18.75 48.95 35.15 34 36.05 33.2 36.9 32.45 53.6 18.3 76.9 18.3 78.9 18.3 80.85 18.4 100.7 19.45 115.65 31.25 115.75 31.35 115.85 31.5
L 116.2 31.7
Q 116.6 32.1 117.05 32.45 117.15 32.55 117.3 32.65 117.65 32.9 118 33.25 118.25 33.5 118.5 33.75 118.6 33.85 118.7 34 135.1 48.95 135.6 70
L 135.6 72.15
Q 135.6 72.6 135.6 73.25 135.6 74.2 135.6 75.45 135.6 75.95 135.6 76.55 135.6 78.35 135.6 80.7
L 135.6 81.8
Q 135.6 84.52890625 135.6 88 135.6 89.528125 135.6 91.2 135.6 101.6720703125 135.6 116.95
L 153.9 107.45
Q 153.9 98.60390625 153.9 91.2 153.9 89.5619140625 153.9 88 153.9 84.733203125 153.9 81.8
L 153.9 80.7
Q 153.9 78.3 153.9 76.55
L 153.9 75.45
Q 153.9 74.1 153.9 73.25 153.9 72.6 153.9 72.15
L 153.55 62.95
Q 150.8 38.4 131.05 20.45 130.6 20.05 130.25 19.7
L 130.1 19.6
Q 129.75 19.25 129.65 19.15 129.05 18.55 128.45 18.2 128.1 17.8 127.75 17.45 Z"/>
</g>
</defs>

<g transform="matrix( 1, 0, 0, 1, 0,0) ">
<use xlink:href="#Layer0_0_FILL"/>
</g>
</svg>
