<svg xmlns="http://www.w3.org/2000/svg" width="86" height="100" viewBox="0 0 86 100">
  <defs>
    <linearGradient id="subway-a" x1="25.863%" x2="64.317%" y1="22.781%" y2="83.281%">
      <stop offset="0%" stop-color="#F7DD6D"/>
      <stop offset="100%" stop-color="#F3A539"/>
    </linearGradient>
  </defs>
  <path fill="url(#subway-a)" d="M43,0 C19.35,0 0,2.63157895 0,21.0526316 L0,71.0526316 C0,81.0526316 8.6,89.4736842 18.8125,89.4736842 L10.75,97.3684211 L10.75,100 L75.25,100 L75.25,97.3684211 L67.1875,89.4736842 C77.4,89.4736842 86,81.0526316 86,71.0526316 L86,21.0526316 C86,2.63157895 66.65,0 43,0 Z M18.8125,78.9473684 C14.5125,78.9473684 10.75,75.2631579 10.75,71.0526316 C10.75,66.8421053 14.5125,63.1578947 18.8125,63.1578947 C23.1125,63.1578947 26.875,66.8421053 26.875,71.0526316 C26.875,75.2631579 23.1125,78.9473684 18.8125,78.9473684 Z M37.625,47.3684211 L10.75,47.3684211 L10.75,21.0526316 L37.625,21.0526316 L37.625,47.3684211 Z M67.1875,78.9473684 C62.8875,78.9473684 59.125,75.2631579 59.125,71.0526316 C59.125,66.8421053 62.8875,63.1578947 67.1875,63.1578947 C71.4875,63.1578947 75.25,66.8421053 75.25,71.0526316 C75.25,75.2631579 71.4875,78.9473684 67.1875,78.9473684 Z M75.25,47.3684211 L48.375,47.3684211 L48.375,21.0526316 L75.25,21.0526316 L75.25,47.3684211 Z"/>
</svg>
