<svg xmlns="http://www.w3.org/2000/svg" width="220" height="220" viewBox="0 0 220 220">
  <defs>
    <linearGradient id="subway_blue_circle-a" x1="30.206%" x2="65.522%" y1="26.489%" y2="74.919%">
      <stop offset="0%" stop-color="#F5F5F5"/>
      <stop offset="100%" stop-color="#6BC2ED"/>
    </linearGradient>
    <linearGradient id="subway_blue_circle-b" x1="25.863%" x2="64.317%" y1="29.869%" y2="74.615%">
      <stop offset="0%" stop-color="#FFF" stop-opacity=".95"/>
      <stop offset="100%" stop-color="#6BC2ED"/>
    </linearGradient>
  </defs>
  <g fill="none" fill-rule="evenodd" transform="translate(7 7)">
    <circle cx="103" cy="103" r="102.718" stroke="url(#subway_blue_circle-a)" stroke-width="13"/>
    <path fill="url(#subway_blue_circle-b)" fill-rule="nonzero" d="M103,54 C79.823,54 60.86,56.5789474 60.86,74.631579 L60.86,123.631579 C60.86,133.431579 69.288,141.684211 79.29625,141.684211 L71.395,149.421053 L71.395,152 L134.605,152 L134.605,149.421053 L126.70375,141.684211 C136.712,141.684211 145.14,133.431579 145.14,123.631579 L145.14,74.631579 C145.14,56.5789474 126.177,54 103,54 Z M79.29625,131.368421 C75.08225,131.368421 71.395,127.757895 71.395,123.631579 C71.395,119.505263 75.08225,115.894737 79.29625,115.894737 C83.51025,115.894737 87.1975,119.505263 87.1975,123.631579 C87.1975,127.757895 83.51025,131.368421 79.29625,131.368421 Z M97.7325,100.421053 L71.395,100.421053 L71.395,74.631579 L97.7325,74.631579 L97.7325,100.421053 Z M126.70375,131.368421 C122.48975,131.368421 118.8025,127.757895 118.8025,123.631579 C118.8025,119.505263 122.48975,115.894737 126.70375,115.894737 C130.91775,115.894737 134.605,119.505263 134.605,123.631579 C134.605,127.757895 130.91775,131.368421 126.70375,131.368421 Z M134.605,100.421053 L108.2675,100.421053 L108.2675,74.631579 L134.605,74.631579 L134.605,100.421053 Z"/>
  </g>
</svg>
