<svg xmlns="http://www.w3.org/2000/svg" width="91" height="106" viewBox="0 0 91 106">
  <defs>
    <linearGradient id="subway-icon-a" x1="50%" x2="71.213%" y1="12.571%" y2="138.152%">
      <stop offset="0%" stop-color="#FFF" stop-opacity=".95"/>
      <stop offset="100%" stop-color="#6BC2ED"/>
    </linearGradient>
  </defs>
  <path fill="url(#subway-icon-a)" d="M86.4757447,34 C61.6180851,34 41.28,36.7659574 41.28,56.1276596 L41.28,108.680851 C41.28,119.191489 50.3191489,128.042553 61.0531383,128.042553 L52.5789362,136.340426 L52.5789362,139.106383 L120.372553,139.106383 L120.372553,136.340426 L111.898351,128.042553 C122.63234,128.042553 131.671489,119.191489 131.671489,108.680851 L131.671489,56.1276596 C131.671489,36.7659574 111.333404,34 86.4757447,34 Z M60.845,116.105263 C56.373,116.105263 52.46,112.273684 52.46,107.894737 C52.46,103.51579 56.373,99.6842105 60.845,99.6842105 C65.317,99.6842105 69.23,103.51579 69.23,107.894737 C69.23,112.273684 65.317,116.105263 60.845,116.105263 Z M80.41,83.2631579 L52.46,83.2631579 L52.46,55.8947369 L80.41,55.8947369 L80.41,83.2631579 Z M111.155,116.105263 C106.683,116.105263 102.77,112.273684 102.77,107.894737 C102.77,103.51579 106.683,99.6842105 111.155,99.6842105 C115.627,99.6842105 119.54,103.51579 119.54,107.894737 C119.54,112.273684 115.627,116.105263 111.155,116.105263 Z M119.54,83.2631579 L91.59,83.2631579 L91.59,55.8947369 L119.54,55.8947369 L119.54,83.2631579 Z" transform="translate(-41 -34)"/>
</svg>
